<svg xmlns="http://www.w3.org/2000/svg" width="240.955" height="51.258" viewBox="0 0 240.955 51.258"><defs><style>.a{fill:#565658;}.a,.b{fill-rule:evenodd;}.b{fill:#4b4b4b;}</style></defs><g transform="translate(-0.01 0.01)"><g transform="translate(0.01 -0.01)"><path class="a" d="M25.22,50.556c0,8.509-5.115,12.111-14.354,12.111A25.31,25.31,0,0,1,.949,61c-.626-.26-.939-.574-.939-1.1a8.8,8.8,0,0,1,.678-2.349,1.248,1.248,0,0,1,1.3-.94,7.407,7.407,0,0,1,1.619.418,20.424,20.424,0,0,0,7.829,1.357c5.011,0,8.559-1.306,8.559-6.473,0-1.983-.47-3.707-5.062-5.585l-4.123-1.669c-4.176-1.672-6.159-4.436-6.159-8.507,0-8.143,5.168-11.692,14.041-11.692a27.207,27.207,0,0,1,8.143,1.1,1.074,1.074,0,0,1,.887,1.149A11.33,11.33,0,0,1,27.2,29a1.082,1.082,0,0,1-1.1.835,8.16,8.16,0,0,1-1.722-.261,27.36,27.36,0,0,0-6.89-.94c-4.907,0-7.673,1.931-7.673,6.42,0,2.348.73,4.071,4.593,5.637l3.758,1.513c4.906,1.669,7.046,4.281,7.046,8.35Z" transform="translate(-0.01 -22.944)"/><path class="a" d="M489.892,238.869c-3.08,0-7.1-.732-7.1-4.908a23.193,23.193,0,0,1,.522-4.226l3.5-16.286c.157-.68.418-1.149,1.305-1.149h2.5c.574,0,.888.262.888.732a7.074,7.074,0,0,1-.1.991l-3.341,15.4a15.394,15.394,0,0,0-.365,2.923c0,2.035,1.931,2.506,4.175,2.506a15.761,15.761,0,0,0,5.846-.939,4.2,4.2,0,0,0,1.2-.834,4.844,4.844,0,0,0,.626-1.672l3.811-17.9a1.285,1.285,0,0,1,1.357-1.2h2.4c.575,0,.939.262.939.784a3.54,3.54,0,0,1-.1.73l-4.906,23.228a24.79,24.79,0,0,1-2.035,6.471c-2.61,5.064-8.2,6.891-17.7,6.891-.991,0-1.356-.418-1.356-1.149a12.767,12.767,0,0,1,.052-1.462c.052-.782.365-1.513,1.253-1.513,8.926,0,11.744-1.617,13.206-3.914a11.888,11.888,0,0,0,1.513-4.019l.261-1.2a18.572,18.572,0,0,1-8.351,1.724Z" transform="translate(-452.1 -199.146)"/><path class="a" d="M960.565,228.828h-2.505c-.626,0-.939-.312-.939-.781a5.547,5.547,0,0,1,.157-.991l4.123-19.522a3.994,3.994,0,0,1,2.4-3.131,29.277,29.277,0,0,1,11.64-2.192c3.341,0,6.942.991,6.942,4.593a21.943,21.943,0,0,1-.522,4.437l-3.5,16.389c-.157.73-.47,1.2-1.253,1.2H974.6c-.626,0-.939-.312-.939-.781a7.161,7.161,0,0,1,.157-1.043l3.289-15.294a18.269,18.269,0,0,0,.416-2.87c0-1.932-1.565-2.558-4.071-2.558a15.172,15.172,0,0,0-6,1.149,5.488,5.488,0,0,0-1.149.678,3.186,3.186,0,0,0-.626,1.513l-3.862,18.007c-.157.73-.47,1.2-1.253,1.2Z" transform="translate(-897.821 -189.681)"/><path class="a" d="M1459.84,214.176a13.066,13.066,0,0,0,.47-3.7c0-2.3-1.043-3.6-4.593-3.6a7.716,7.716,0,0,0-5.794,2.14,11.433,11.433,0,0,0-2.557,5.167h12.475Zm-13.519,6.681c0,4.072,2.3,5.376,6.368,5.376a20.311,20.311,0,0,0,5.846-.782,9.813,9.813,0,0,1,1.514-.314.732.732,0,0,1,.731.626,7.939,7.939,0,0,1,.47,1.931c0,.524-.366.939-1.1,1.2a24.73,24.73,0,0,1-8.664,1.305c-6.785,0-9.918-3.341-9.918-8.926,0-5.012,1.462-11.013,5.325-14.823,2.557-2.506,5.585-3.393,9.6-3.393,6.263,0,8.194,2.819,8.194,6.89a24.924,24.924,0,0,1-.73,6.054c-.209.835-.365,1.253-.782,1.565a2.107,2.107,0,0,1-1.252.314h-15.347a20.3,20.3,0,0,0-.261,2.975Z" transform="translate(-1352.256 -190.478)"/><path class="a" d="M1879.346,226.224a19.615,19.615,0,0,0,4.8-.521,10.061,10.061,0,0,1,1.41-.312c.522,0,.679.26.783.73a10.479,10.479,0,0,1,.418,2.089c0,.574-.522.833-1.149,1.043a24.866,24.866,0,0,1-7.464.939c-5.689,0-9.4-2.87-9.4-8.874,0-4.8,1.514-11.169,5.429-14.979,2.3-2.246,5.168-3.289,9.657-3.289a20.037,20.037,0,0,1,5.794.678.96.96,0,0,1,.782.991,11.423,11.423,0,0,1-.678,2.4.974.974,0,0,1-.94.627,8.4,8.4,0,0,1-1.513-.261,19.271,19.271,0,0,0-4.071-.366,7.757,7.757,0,0,0-6.211,2.453c-2.35,2.558-3.341,7.256-3.341,10.753,0,3.758,1.67,5.9,5.69,5.9Z" transform="translate(-1752.969 -190.469)"/><path class="a" d="M2242.127,39.137h-2.5c-.679,0-.993-.312-.993-.781a5.032,5.032,0,0,1,.157-.939l7.672-36.12c.158-.836.575-1.305,1.359-1.305h2.347c.678,0,.991.314.991.836a3.824,3.824,0,0,1-.051.679l-2.87,13.362c2.192-1.67,5.792-2.3,8.976-2.3,3.132,0,6.787.836,6.787,4.437a18.213,18.213,0,0,1-.52,4.175l-3.552,16.754c-.155.73-.416,1.2-1.3,1.2h-2.454c-.678,0-.939-.312-.939-.781a7.384,7.384,0,0,1,.1-.939l3.342-15.4a19.222,19.222,0,0,0,.364-2.923c0-1.932-1.566-2.453-4.02-2.453a13.559,13.559,0,0,0-6,1.2,2.6,2.6,0,0,0-1.146.679,3.321,3.321,0,0,0-.785,1.826l-3.7,17.59c-.156.73-.417,1.2-1.253,1.2Z" transform="translate(-2099.933 0.01)"/><path class="a" d="M2725.665,229.606h-2.557c-.626,0-.889-.312-.889-.781a5.9,5.9,0,0,1,.159-1.043l4.072-19.1a4.8,4.8,0,0,1,1.879-3.236c1.566-1.253,5.273-2.4,9.447-2.4a13.789,13.789,0,0,1,2.819.209c.416.157.571.47.571.991a7.735,7.735,0,0,1-.468,2.349,1.046,1.046,0,0,1-1.094.678c-.471,0-1.724-.052-2.35-.052a12.1,12.1,0,0,0-4.853.835,2.935,2.935,0,0,0-1.149.94,4.893,4.893,0,0,0-.523,1.566l-3.81,17.85c-.155.73-.468,1.2-1.253,1.2Z" transform="translate(-2553.56 -190.46)"/><path class="a" d="M3484.815,228.828h-2.506c-.626,0-.939-.312-.939-.781a5.321,5.321,0,0,1,.159-.991l4.123-19.522a3.993,3.993,0,0,1,2.4-3.131,29.292,29.292,0,0,1,11.64-2.192c3.342,0,6.941.991,6.941,4.593a21.891,21.891,0,0,1-.519,4.437l-3.5,16.389c-.159.73-.473,1.2-1.254,1.2h-2.505c-.626,0-.94-.312-.94-.781a7.258,7.258,0,0,1,.155-1.043l3.291-15.294a18.356,18.356,0,0,0,.417-2.87c0-1.932-1.566-2.558-4.072-2.558a15.176,15.176,0,0,0-6,1.149,5.416,5.416,0,0,0-1.149.678,3.2,3.2,0,0,0-.626,1.513l-3.861,18.007c-.159.73-.468,1.2-1.253,1.2Z" transform="translate(-3265.676 -189.681)"/><path class="a" d="M3084.992,348.931c-.442.337-.553.533-.589.766-.413,2.84-1.253,6.5-2.469,8.427-1.356,2.193-3.651,2.87-6.212,2.87a6.814,6.814,0,0,1-4.149-.956.861.861,0,0,0-1.058-.058l-2.443,1.866a.921.921,0,0,0,.049,1.488c1.817,1.265,4.351,1.629,7.236,1.629,4.333,0,7.778-1.1,9.971-4.124,2.461-3.339,3.7-9.393,4.031-13.34a.9.9,0,0,0-1.448-.795Z" transform="translate(-2877.652 -325.044)"/><path class="b" d="M3035.394,223.628c.361-.281.441-.419.457-.586.243-2.96,1.2-8.124,3.121-10.484a6.712,6.712,0,0,1,5.583-2.349c2.284,0,4.02.3,4.985,1.522a.886.886,0,0,0,1.234.152l2.564-1.958a.921.921,0,0,0,.118-1.345c-1.816-2.049-4.912-2.389-8.431-2.389-3.6,0-7.008.829-9.344,3.5-3.291,3.758-4.337,9.693-4.528,15.331a.906.906,0,0,0,1.455.76l2.786-2.15Z" transform="translate(-2843.352 -193.415)"/><path class="a" d="M3195.26,386.762a2.5,2.5,0,1,1-2.5-2.5,2.5,2.5,0,0,1,2.5,2.5Z" transform="translate(-2992.603 -360.452)"/></g></g></svg>